<?xml version="1.0" encoding="utf-8"?>
<!-- Generator: Adobe Illustrator 21.1.0, SVG Export Plug-In . SVG Version: 6.00 Build 0)  -->
<svg version="1.1" id="Layer_1" xmlns="http://www.w3.org/2000/svg" xmlns:xlink="http://www.w3.org/1999/xlink" x="0px" y="0px"
	 viewBox="0 0 79.4 79.4" style="enable-background:new 0 0 79.4 79.4;" xml:space="preserve">
<style type="text/css">
	.st0{fill:#20BBB1;}
	.st1{fill:#FFFFFF;}
	.st2{fill:#067E9D;}
	.st3{fill:#16A7E0;}
	.st4{fill:none;}
	.st5{fill:none;stroke:#E6E6E5;stroke-miterlimit:10;}
	.st6{fill:#40BEB0;}
	.st7{fill:#09A5DE;}
	.st8{fill-rule:evenodd;clip-rule:evenodd;fill:#40BEB0;}
	.st9{fill-rule:evenodd;clip-rule:evenodd;fill:#09A5DE;}
	.st10{fill:none;stroke:#40BEB0;stroke-width:3;stroke-linecap:round;stroke-linejoin:round;stroke-miterlimit:10;}
	.st11{fill:#7F8080;}
	.st12{fill:#FFFFFF;stroke:#E6E6E5;stroke-miterlimit:10;}
	.st13{opacity:0.4;}
	.st14{fill:#010101;}
	.st15{fill:#0A79A0;}
	.st16{fill:none;stroke:#20BBB1;stroke-width:3;stroke-linecap:round;stroke-miterlimit:10;}
	.st17{fill:none;stroke:#8D8C8C;stroke-miterlimit:10;}
	.st18{fill:#353535;}
	.st19{fill-rule:evenodd;clip-rule:evenodd;fill:#231F20;}
	.st20{fill:#1FBBB1;}
	.st21{fill-rule:evenodd;clip-rule:evenodd;fill:#EF5098;}
	.st22{fill-rule:evenodd;clip-rule:evenodd;fill:#14A8E0;}
	.st23{fill-rule:evenodd;clip-rule:evenodd;fill:#FDD10D;}
	.st24{fill-rule:evenodd;clip-rule:evenodd;fill:#20BBB1;}
	.st25{fill:#17A8E0;}
	.st26{fill:#231F20;}
	.st27{fill:#009B8F;}
	.st28{fill:#F7B119;}
	.st29{fill:#FDD10E;}
	.st30{fill:#009B90;}
	.st31{fill:#EF5098;}
	.st32{opacity:0.2;fill:#231F20;}
	.st33{fill:#FDD10D;}
	.st34{fill:#94C93D;}
	.st35{fill:#73A441;}
	.st36{fill:#0179A1;}
	.st37{fill:#0479A1;}
	.st38{fill:#D7A229;}
	.st39{fill:#EFBF1B;}
	.st40{fill-rule:evenodd;clip-rule:evenodd;fill:#FFFFFF;}
	.st41{fill:#FBD011;}
	.st42{fill:#1FBAB0;}
	.st43{fill:#EFBA1C;}
</style>
<g>
	<path class="st41" d="M69.6,39.7c-1.2,3.1-4.1,5.1-7.4,5.1c-2.9,0-5.4-1.5-6.8-3.8v-3.5c0-11.4-9.2-20.6-20.5-20.6
		s-20.5,9.1-20.5,20.5v6.8c0,0.1,0,0.2-0.1,0.3c-0.1,0.2-0.1,0.3-0.2,0.5s-0.2,0.3-0.3,0.5c-0.1,0.2-0.2,0.3-0.3,0.5
		c-0.1,0.1-0.1,0.2-0.2,0.3c-0.1,0.1-0.1,0.2-0.2,0.3c-0.3,0.3-0.5,0.7-0.8,1c-0.2,0.2-0.3,0.3-0.5,0.4c-0.2,0.2-0.3,0.3-0.5,0.4
		c-0.2,0.2-0.3,0.3-0.5,0.3c-0.2,0.1-0.3,0.2-0.6,0.3c-0.1,0-0.2,0-0.3,0.1c-0.1,0.1-0.2,0.1-0.3,0.1c-0.2,0.1-0.3,0.2-0.6,0.2
		c-0.3,0.1-0.7,0.3-1.1,0.3c-0.2,0-0.3,0.1-0.5,0.1c-0.2,0-0.3,0-0.4,0c-0.3,0-0.5,0-0.8,0c-0.4,0-0.7-0.1-0.7-0.1s0.3,0.1,0.6,0.2
		C6.6,50,6.8,50,7.2,50.1c0.2,0,0.3,0.1,0.5,0.1c0.2,0,0.3,0,0.5,0c0.3,0,0.8,0,1.2,0c0.2,0,0.4-0.1,0.7-0.1c0.1,0,0.3,0,0.3-0.1
		c0.1,0,0.3-0.1,0.3-0.1c0.3-0.1,0.4-0.1,0.7-0.2c0.3-0.1,0.4-0.2,0.7-0.3s0.4-0.3,0.7-0.3c0.3-0.2,0.4-0.3,0.7-0.4
		c0.3-0.2,0.6-0.4,0.9-0.7v11h40.9V47.9c2,1.2,4.3,2,6.8,2c2.7,0,5.2-0.9,7.4-2.4c2.1-1.5,3.8-3.6,4.7-6L69.6,39.7z"/>
	<path class="st1" d="M51.4,34.6c0,1.3-1,2.3-2.3,2.3s-2.3-1-2.3-2.3s1-2.3,2.3-2.3S51.4,33.3,51.4,34.6"/>
	<path class="st42" d="M44.5,46.5c-7.4,0-13.4-6-13.4-13.5c0-7.4,6-13.5,13.4-13.5C44.5,19.5,44.5,46.5,44.5,46.5z"/>
	<rect x="14.3" y="56.4" class="st43" width="40.9" height="2.7"/>
</g>
<rect x="7.8" y="6.9" class="st4" width="64.6" height="64.6"/>
</svg>
